# xmcd
#
# Track frame offsets:
#	150
#	17294
#	35331
#	53002
#	73174
#	90335
#	106594
#	123313
#	140752
#	157188
#	174888
#	192296
#	210769
#	230220
#	246451
#	263507
#	280230
#
# Disc length: 4005 seconds
#
# Revision: 0
# Processed by: cddbd v1.5.2PL0 Copyright (c) Steve Scherf et al.
# Submitted via: dBpowerAMP V4.0
#
DISCID=e10fa311
DTITLE=Various Artist - Top Hits USA RA53
DYEAR=1900
DGENRE=
TTITLE0=Savage Garden - The Animal Song (Radio Edit)
TTITLE1=Shania Twain - That Don't Impress me Much (International Remix #1)
TTITLE2=Tina Arena - I Was a River (Radio Edit)
TTITLE3=Paul Anka with Celine Dion - It's Hard to Say Goodbye
TTITLE4=Mariah Carey - I Still Believe
TTITLE5=Chicago - Show me a Sign
TTITLE6=Na Leo - Poetry Man
TTITLE7=Joey McIntyre - Stay The Same
TTITLE8=Bonnie Raitt - Lover's Will (Edit)
TTITLE9=Cher - Believe
TTITLE10=Mulberry Lane - Harmless (Radio Edit)
TTITLE11=Donna Lewis - Falling
TTITLE12=Matchbox 20 - Back 2 Good (Edit)
TTITLE13=Brandy - Have You Ever (Radio Edit)
TTITLE14=America - From a Moving Train
TTITLE15=Pretenders - Loving You is All I Know
TTITLE16=Celine Dion (Duet with Andrea Bocelli) - The Prayer
EXTD=
EXTT0=
EXTT1=
EXTT2=
EXTT3=
EXTT4=
EXTT5=
EXTT6=
EXTT7=
EXTT8=
EXTT9=
EXTT10=
EXTT11=
EXTT12=
EXTT13=
EXTT14=
EXTT15=
EXTT16=
PLAYORDER=
